<?xml version="1.0" encoding="UTF-8" standalone="no"?>
<!DOCTYPE svg PUBLIC "-//W3C//DTD SVG 1.1//EN"
 "http://www.w3.org/Graphics/SVG/1.1/DTD/svg11.dtd">
<!-- Generated by graphviz version 2.40.1 (20161225.0304)
 -->
<!-- Title: dependencies Pages: 1 -->
<svg width="504pt" height="284pt"
 viewBox="0.00 0.00 504.00 284.00" xmlns="http://www.w3.org/2000/svg" xmlns:xlink="http://www.w3.org/1999/xlink">
<g id="graph0" class="graph" transform="scale(1 1) rotate(0) translate(4 280)">
<title>dependencies</title>
<polygon fill="#ffffff" stroke="transparent" points="-4,4 -4,-280 500,-280 500,4 -4,4"/>
<text text-anchor="start" x="227.0091" y="-42.4" font-family="sans-serif" font-weight="bold" font-size="14.00" fill="#000000">Legend</text>
<polygon fill="#ffffb3" stroke="transparent" points="14,-10 14,-30 34,-30 34,-10 14,-10"/>
<text text-anchor="start" x="37.629" y="-15.4" font-family="sans-serif" font-size="14.00" fill="#000000"> &#160;Declarations</text>
<polygon fill="#8dd3c7" stroke="transparent" points="127,-10 127,-30 147,-30 147,-10 127,-10"/>
<text text-anchor="start" x="150.7251" y="-15.4" font-family="sans-serif" font-size="14.00" fill="#000000"> &#160;Module</text>
<polygon fill="#80b1d3" stroke="transparent" points="213,-10 213,-30 233,-30 233,-10 213,-10"/>
<text text-anchor="start" x="236.7812" y="-15.4" font-family="sans-serif" font-size="14.00" fill="#000000"> &#160;Bootstrap</text>
<polygon fill="#fdb462" stroke="transparent" points="310,-10 310,-30 330,-30 330,-10 310,-10"/>
<text text-anchor="start" x="333.6732" y="-15.4" font-family="sans-serif" font-size="14.00" fill="#000000"> &#160;Providers</text>
<polygon fill="#fb8072" stroke="transparent" points="406,-10 406,-30 426,-30 426,-10 406,-10"/>
<text text-anchor="start" x="429.7258" y="-15.4" font-family="sans-serif" font-size="14.00" fill="#000000"> &#160;Exports</text>
<g id="clust1" class="cluster">
<title>cluster_UkAlertModule</title>
<polygon fill="none" stroke="#000000" stroke-dasharray="1,5" points="99,-70 99,-268 397,-268 397,-70 99,-70"/>
</g>
<g id="clust2" class="cluster">
<title>cluster_UkAlertModule_declarations</title>
<polygon fill="none" stroke="#000000" points="110,-78 110,-130 386,-130 386,-78 110,-78"/>
</g>
<g id="clust6" class="cluster">
<title>cluster_UkAlertModule_exports</title>
<polygon fill="none" stroke="#000000" points="107,-208 107,-260 389,-260 389,-208 107,-208"/>
</g>
<!-- UkAlertComponent -->
<g id="node1" class="node">
<title>UkAlertComponent</title>
<polygon fill="#ffffb3" stroke="#000000" points="377.7022,-122 250.2978,-122 250.2978,-86 377.7022,-86 377.7022,-122"/>
<text text-anchor="middle" x="314" y="-99.8" font-family="Times,serif" font-size="14.00" fill="#000000">UkAlertComponent</text>
</g>
<!-- UkAlertModule -->
<g id="node3" class="node">
<title>UkAlertModule</title>
<polygon fill="#8dd3c7" stroke="#000000" points="228.9202,-187 225.9202,-191 204.9202,-191 201.9202,-187 123.0798,-187 123.0798,-151 228.9202,-151 228.9202,-187"/>
<text text-anchor="middle" x="176" y="-164.8" font-family="Times,serif" font-size="14.00" fill="#000000">UkAlertModule</text>
</g>
<!-- UkAlertComponent&#45;&gt;UkAlertModule -->
<g id="edge1" class="edge">
<title>UkAlertComponent&#45;&gt;UkAlertModule</title>
<path fill="none" stroke="#000000" d="M335.2837,-122.0225C335.2837,-139.3734 335.2837,-163 335.2837,-163 335.2837,-163 239.0392,-163 239.0392,-163"/>
<polygon fill="#000000" stroke="#000000" points="239.0392,-159.5001 229.0392,-163 239.0391,-166.5001 239.0392,-159.5001"/>
</g>
<!-- UkAlertDirective -->
<g id="node2" class="node">
<title>UkAlertDirective</title>
<polygon fill="#ffffb3" stroke="#000000" points="231.9524,-122 118.0476,-122 118.0476,-86 231.9524,-86 231.9524,-122"/>
<text text-anchor="middle" x="175" y="-99.8" font-family="Times,serif" font-size="14.00" fill="#000000">UkAlertDirective</text>
</g>
<!-- UkAlertDirective&#45;&gt;UkAlertModule -->
<g id="edge2" class="edge">
<title>UkAlertDirective&#45;&gt;UkAlertModule</title>
<path fill="none" stroke="#000000" d="M176,-122.1061C176,-122.1061 176,-140.991 176,-140.991"/>
<polygon fill="#000000" stroke="#000000" points="172.5001,-140.9909 176,-150.991 179.5001,-140.991 172.5001,-140.9909"/>
</g>
<!-- UkAlertComponent  -->
<g id="node4" class="node">
<title>UkAlertComponent </title>
<polygon fill="#fb8072" stroke="#000000" points="381.2023,-252 250.7977,-252 250.7977,-216 381.2023,-216 381.2023,-252"/>
<text text-anchor="middle" x="316" y="-229.8" font-family="Times,serif" font-size="14.00" fill="#000000">UkAlertComponent </text>
</g>
<!-- UkAlertModule&#45;&gt;UkAlertComponent  -->
<g id="edge3" class="edge">
<title>UkAlertModule&#45;&gt;UkAlertComponent </title>
<path fill="none" stroke="#000000" stroke-dasharray="5,2" d="M229.0075,-175C259.9553,-175 292.9663,-175 292.9663,-175 292.9663,-175 292.9663,-205.9775 292.9663,-205.9775"/>
<polygon fill="#000000" stroke="#000000" points="289.4664,-205.9774 292.9663,-215.9775 296.4664,-205.9775 289.4664,-205.9774"/>
</g>
<!-- UkAlertDirective  -->
<g id="node5" class="node">
<title>UkAlertDirective </title>
<polygon fill="#fb8072" stroke="#000000" points="232.9533,-252 115.0467,-252 115.0467,-216 232.9533,-216 232.9533,-252"/>
<text text-anchor="middle" x="174" y="-229.8" font-family="Times,serif" font-size="14.00" fill="#000000">UkAlertDirective </text>
</g>
<!-- UkAlertModule&#45;&gt;UkAlertDirective  -->
<g id="edge4" class="edge">
<title>UkAlertModule&#45;&gt;UkAlertDirective </title>
<path fill="none" stroke="#000000" stroke-dasharray="5,2" d="M176,-187.1061C176,-187.1061 176,-205.991 176,-205.991"/>
<polygon fill="#000000" stroke="#000000" points="172.5001,-205.9909 176,-215.991 179.5001,-205.991 172.5001,-205.9909"/>
</g>
</g>
</svg>
