<?xml version="1.0" encoding="UTF-8" standalone="no"?>
<!DOCTYPE svg PUBLIC "-//W3C//DTD SVG 1.1//EN"
 "http://www.w3.org/Graphics/SVG/1.1/DTD/svg11.dtd">
<!-- Generated by graphviz version 2.40.1 (20161225.0304)
 -->
<!-- Title: dependencies Pages: 1 -->
<svg width="504pt" height="284pt"
 viewBox="0.00 0.00 504.00 284.00" xmlns="http://www.w3.org/2000/svg" xmlns:xlink="http://www.w3.org/1999/xlink">
<g id="graph0" class="graph" transform="scale(1 1) rotate(0) translate(4 280)">
<title>dependencies</title>
<polygon fill="#ffffff" stroke="transparent" points="-4,4 -4,-280 500,-280 500,4 -4,4"/>
<text text-anchor="start" x="227.0091" y="-42.4" font-family="sans-serif" font-weight="bold" font-size="14.00" fill="#000000">Legend</text>
<polygon fill="#ffffb3" stroke="transparent" points="14,-10 14,-30 34,-30 34,-10 14,-10"/>
<text text-anchor="start" x="37.629" y="-15.4" font-family="sans-serif" font-size="14.00" fill="#000000"> &#160;Declarations</text>
<polygon fill="#8dd3c7" stroke="transparent" points="127,-10 127,-30 147,-30 147,-10 127,-10"/>
<text text-anchor="start" x="150.7251" y="-15.4" font-family="sans-serif" font-size="14.00" fill="#000000"> &#160;Module</text>
<polygon fill="#80b1d3" stroke="transparent" points="213,-10 213,-30 233,-30 233,-10 213,-10"/>
<text text-anchor="start" x="236.7812" y="-15.4" font-family="sans-serif" font-size="14.00" fill="#000000"> &#160;Bootstrap</text>
<polygon fill="#fdb462" stroke="transparent" points="310,-10 310,-30 330,-30 330,-10 310,-10"/>
<text text-anchor="start" x="333.6732" y="-15.4" font-family="sans-serif" font-size="14.00" fill="#000000"> &#160;Providers</text>
<polygon fill="#fb8072" stroke="transparent" points="406,-10 406,-30 426,-30 426,-10 406,-10"/>
<text text-anchor="start" x="429.7258" y="-15.4" font-family="sans-serif" font-size="14.00" fill="#000000"> &#160;Exports</text>
<g id="clust1" class="cluster">
<title>cluster_NgxUikitModule</title>
<polygon fill="none" stroke="#000000" stroke-dasharray="1,5" points="100,-70 100,-268 396,-268 396,-70 100,-70"/>
</g>
<g id="clust2" class="cluster">
<title>cluster_NgxUikitModule_declarations</title>
<polygon fill="none" stroke="#000000" points="238,-78 238,-130 388,-130 388,-78 238,-78"/>
</g>
<g id="clust4" class="cluster">
<title>cluster_NgxUikitModule_imports</title>
<polygon fill="none" stroke="#000000" points="108,-78 108,-130 230,-130 230,-78 108,-78"/>
</g>
<g id="clust5" class="cluster">
<title>cluster_NgxUikitModule_exports</title>
<polygon fill="none" stroke="#000000" points="108,-208 108,-260 388,-260 388,-208 108,-208"/>
</g>
<!-- NgxUikitComponent -->
<g id="node1" class="node">
<title>NgxUikitComponent</title>
<polygon fill="#ffffb3" stroke="#000000" points="380.2176,-122 245.7824,-122 245.7824,-86 380.2176,-86 380.2176,-122"/>
<text text-anchor="middle" x="313" y="-99.8" font-family="Times,serif" font-size="14.00" fill="#000000">NgxUikitComponent</text>
</g>
<!-- NgxUikitModule -->
<g id="node2" class="node">
<title>NgxUikitModule</title>
<polygon fill="#8dd3c7" stroke="#000000" points="296.4356,-187 293.4356,-191 272.4356,-191 269.4356,-187 183.5644,-187 183.5644,-151 296.4356,-151 296.4356,-187"/>
<text text-anchor="middle" x="240" y="-164.8" font-family="Times,serif" font-size="14.00" fill="#000000">NgxUikitModule</text>
</g>
<!-- NgxUikitComponent&#45;&gt;NgxUikitModule -->
<g id="edge1" class="edge">
<title>NgxUikitComponent&#45;&gt;NgxUikitModule</title>
<path fill="none" stroke="#000000" d="M271.0544,-122.1061C271.0544,-122.1061 271.0544,-140.991 271.0544,-140.991"/>
<polygon fill="#000000" stroke="#000000" points="267.5544,-140.9909 271.0544,-150.991 274.5544,-140.991 267.5544,-140.9909"/>
</g>
<!-- NgxUikitComponent  -->
<g id="node4" class="node">
<title>NgxUikitComponent </title>
<polygon fill="#fb8072" stroke="#000000" points="379.7177,-252 242.2823,-252 242.2823,-216 379.7177,-216 379.7177,-252"/>
<text text-anchor="middle" x="311" y="-229.8" font-family="Times,serif" font-size="14.00" fill="#000000">NgxUikitComponent </text>
</g>
<!-- NgxUikitModule&#45;&gt;NgxUikitComponent  -->
<g id="edge3" class="edge">
<title>NgxUikitModule&#45;&gt;NgxUikitComponent </title>
<path fill="none" stroke="#000000" stroke-dasharray="5,2" d="M269.1794,-187.1061C269.1794,-187.1061 269.1794,-205.991 269.1794,-205.991"/>
<polygon fill="#000000" stroke="#000000" points="265.6794,-205.9909 269.1794,-215.991 272.6794,-205.991 265.6794,-205.9909"/>
</g>
<!-- UkAlertModule  -->
<g id="node5" class="node">
<title>UkAlertModule </title>
<polygon fill="#fb8072" stroke="#000000" points="224.4194,-252 115.5806,-252 115.5806,-216 224.4194,-216 224.4194,-252"/>
<text text-anchor="middle" x="170" y="-229.8" font-family="Times,serif" font-size="14.00" fill="#000000">UkAlertModule </text>
</g>
<!-- NgxUikitModule&#45;&gt;UkAlertModule  -->
<g id="edge4" class="edge">
<title>NgxUikitModule&#45;&gt;UkAlertModule </title>
<path fill="none" stroke="#000000" stroke-dasharray="5,2" d="M204.1212,-187.1061C204.1212,-187.1061 204.1212,-205.991 204.1212,-205.991"/>
<polygon fill="#000000" stroke="#000000" points="200.6212,-205.9909 204.1212,-215.991 207.6212,-205.991 200.6212,-205.9909"/>
</g>
<!-- UkAlertModule -->
<g id="node3" class="node">
<title>UkAlertModule</title>
<polygon fill="#8dd3c7" stroke="#000000" points="221.9202,-122 218.9202,-126 197.9202,-126 194.9202,-122 116.0798,-122 116.0798,-86 221.9202,-86 221.9202,-122"/>
<text text-anchor="middle" x="169" y="-99.8" font-family="Times,serif" font-size="14.00" fill="#000000">UkAlertModule</text>
</g>
<!-- UkAlertModule&#45;&gt;NgxUikitModule -->
<g id="edge2" class="edge">
<title>UkAlertModule&#45;&gt;NgxUikitModule</title>
<path fill="none" stroke="#000000" d="M202.7462,-122.1061C202.7462,-122.1061 202.7462,-140.991 202.7462,-140.991"/>
<polygon fill="#000000" stroke="#000000" points="199.2462,-140.9909 202.7462,-150.991 206.2462,-140.991 199.2462,-140.9909"/>
</g>
</g>
</svg>
