<?xml version="1.0" encoding="UTF-8" standalone="no"?>
<!DOCTYPE svg PUBLIC "-//W3C//DTD SVG 1.1//EN"
 "http://www.w3.org/Graphics/SVG/1.1/DTD/svg11.dtd">
<!-- Generated by graphviz version 2.40.1 (20161225.0304)
 -->
<!-- Title: dependencies Pages: 1 -->
<svg width="1506pt" height="290pt"
 viewBox="0.00 0.00 1506.00 290.00" xmlns="http://www.w3.org/2000/svg" xmlns:xlink="http://www.w3.org/1999/xlink">
<g id="graph0" class="graph" transform="scale(1 1) rotate(0) translate(4 286)">
<title>dependencies</title>
<polygon fill="#ffffff" stroke="transparent" points="-4,4 -4,-286 1502,-286 1502,4 -4,4"/>
<text text-anchor="start" x="728.0091" y="-42.4" font-family="sans-serif" font-weight="bold" font-size="14.00" fill="#000000">Legend</text>
<polygon fill="#ffffb3" stroke="transparent" points="515,-10 515,-30 535,-30 535,-10 515,-10"/>
<text text-anchor="start" x="538.629" y="-15.4" font-family="sans-serif" font-size="14.00" fill="#000000"> &#160;Declarations</text>
<polygon fill="#8dd3c7" stroke="transparent" points="628,-10 628,-30 648,-30 648,-10 628,-10"/>
<text text-anchor="start" x="651.7251" y="-15.4" font-family="sans-serif" font-size="14.00" fill="#000000"> &#160;Module</text>
<polygon fill="#80b1d3" stroke="transparent" points="714,-10 714,-30 734,-30 734,-10 714,-10"/>
<text text-anchor="start" x="737.7812" y="-15.4" font-family="sans-serif" font-size="14.00" fill="#000000"> &#160;Bootstrap</text>
<polygon fill="#fdb462" stroke="transparent" points="811,-10 811,-30 831,-30 831,-10 811,-10"/>
<text text-anchor="start" x="834.6732" y="-15.4" font-family="sans-serif" font-size="14.00" fill="#000000"> &#160;Providers</text>
<polygon fill="#fb8072" stroke="transparent" points="907,-10 907,-30 927,-30 927,-10 907,-10"/>
<text text-anchor="start" x="930.7258" y="-15.4" font-family="sans-serif" font-size="14.00" fill="#000000"> &#160;Exports</text>
<g id="clust1" class="cluster">
<title>cluster_NgxUikitModule</title>
<polygon fill="none" stroke="#000000" stroke-dasharray="1,5" points="8,-70 8,-274 304,-274 304,-70 8,-70"/>
</g>
<g id="clust2" class="cluster">
<title>cluster_NgxUikitModule_declarations</title>
<polygon fill="none" stroke="#000000" points="16,-78 16,-130 166,-130 166,-78 16,-78"/>
</g>
<g id="clust4" class="cluster">
<title>cluster_NgxUikitModule_imports</title>
<polygon fill="none" stroke="#000000" points="174,-78 174,-130 296,-130 296,-78 174,-78"/>
</g>
<g id="clust5" class="cluster">
<title>cluster_NgxUikitModule_exports</title>
<polygon fill="none" stroke="#000000" points="16,-214 16,-266 296,-266 296,-214 16,-214"/>
</g>
<g id="clust8" class="cluster">
<title>cluster_UkAccordionModule</title>
<polygon fill="none" stroke="#000000" stroke-dasharray="1,5" points="902,-70 902,-274 1096,-274 1096,-70 902,-70"/>
</g>
<g id="clust9" class="cluster">
<title>cluster_UkAccordionModule_declarations</title>
<polygon fill="none" stroke="#000000" points="912,-78 912,-130 1086,-130 1086,-78 912,-78"/>
</g>
<g id="clust12" class="cluster">
<title>cluster_UkAccordionModule_exports</title>
<polygon fill="none" stroke="#000000" points="910,-214 910,-266 1088,-266 1088,-214 910,-214"/>
</g>
<g id="clust15" class="cluster">
<title>cluster_UkAlertModule</title>
<polygon fill="none" stroke="#000000" stroke-dasharray="1,5" points="312,-138 312,-206 894,-206 894,-138 312,-138"/>
</g>
<g id="clust16" class="cluster">
<title>cluster_UkAlertModule_declarations</title>
<polygon fill="none" stroke="#000000" points="610,-146 610,-198 886,-198 886,-146 610,-146"/>
</g>
<g id="clust20" class="cluster">
<title>cluster_UkAlertModule_exports</title>
<polygon fill="none" stroke="#000000" points="320,-146 320,-198 602,-198 602,-146 320,-146"/>
</g>
<g id="clust23" class="cluster">
<title>cluster_UkAnimationModule</title>
<polygon fill="none" stroke="#000000" stroke-dasharray="1,5" points="1104,-70 1104,-274 1490,-274 1490,-70 1104,-70"/>
</g>
<g id="clust24" class="cluster">
<title>cluster_UkAnimationModule_declarations</title>
<polygon fill="none" stroke="#000000" points="1115,-78 1115,-130 1479,-130 1479,-78 1115,-78"/>
</g>
<g id="clust28" class="cluster">
<title>cluster_UkAnimationModule_exports</title>
<polygon fill="none" stroke="#000000" points="1112,-214 1112,-266 1482,-266 1482,-214 1112,-214"/>
</g>
<!-- NgxUikitComponent -->
<g id="node1" class="node">
<title>NgxUikitComponent</title>
<polygon fill="#ffffb3" stroke="#000000" points="158.2176,-122 23.7824,-122 23.7824,-86 158.2176,-86 158.2176,-122"/>
<text text-anchor="middle" x="91" y="-99.8" font-family="Times,serif" font-size="14.00" fill="#000000">NgxUikitComponent</text>
</g>
<!-- NgxUikitModule -->
<g id="node2" class="node">
<title>NgxUikitModule</title>
<polygon fill="#8dd3c7" stroke="#000000" points="211.4356,-190 208.4356,-194 187.4356,-194 184.4356,-190 98.5644,-190 98.5644,-154 211.4356,-154 211.4356,-190"/>
<text text-anchor="middle" x="155" y="-167.8" font-family="Times,serif" font-size="14.00" fill="#000000">NgxUikitModule</text>
</g>
<!-- NgxUikitComponent&#45;&gt;NgxUikitModule -->
<g id="edge1" class="edge">
<title>NgxUikitComponent&#45;&gt;NgxUikitModule</title>
<path fill="none" stroke="#000000" d="M128.4457,-122.2228C128.4457,-122.2228 128.4457,-143.7269 128.4457,-143.7269"/>
<polygon fill="#000000" stroke="#000000" points="124.9457,-143.7269 128.4457,-153.7269 131.9457,-143.727 124.9457,-143.7269"/>
</g>
<!-- NgxUikitComponent  -->
<g id="node4" class="node">
<title>NgxUikitComponent </title>
<polygon fill="#fb8072" stroke="#000000" points="287.7177,-258 150.2823,-258 150.2823,-222 287.7177,-222 287.7177,-258"/>
<text text-anchor="middle" x="219" y="-235.8" font-family="Times,serif" font-size="14.00" fill="#000000">NgxUikitComponent </text>
</g>
<!-- NgxUikitModule&#45;&gt;NgxUikitComponent  -->
<g id="edge3" class="edge">
<title>NgxUikitModule&#45;&gt;NgxUikitComponent </title>
<path fill="none" stroke="#000000" stroke-dasharray="5,2" d="M180.6794,-190.2228C180.6794,-190.2228 180.6794,-211.7269 180.6794,-211.7269"/>
<polygon fill="#000000" stroke="#000000" points="177.1794,-211.7269 180.6794,-221.7269 184.1794,-211.727 177.1794,-211.7269"/>
</g>
<!-- UkAlertModule  -->
<g id="node5" class="node">
<title>UkAlertModule </title>
<polygon fill="#fb8072" stroke="#000000" points="132.4194,-258 23.5806,-258 23.5806,-222 132.4194,-222 132.4194,-258"/>
<text text-anchor="middle" x="78" y="-235.8" font-family="Times,serif" font-size="14.00" fill="#000000">UkAlertModule </text>
</g>
<!-- NgxUikitModule&#45;&gt;UkAlertModule  -->
<g id="edge4" class="edge">
<title>NgxUikitModule&#45;&gt;UkAlertModule </title>
<path fill="none" stroke="#000000" stroke-dasharray="5,2" d="M115.6212,-190.2228C115.6212,-190.2228 115.6212,-211.7269 115.6212,-211.7269"/>
<polygon fill="#000000" stroke="#000000" points="112.1212,-211.7269 115.6212,-221.7269 119.1212,-211.727 112.1212,-211.7269"/>
</g>
<!-- UkAlertModule -->
<g id="node3" class="node">
<title>UkAlertModule</title>
<polygon fill="#8dd3c7" stroke="#000000" points="287.9202,-122 284.9202,-126 263.9202,-126 260.9202,-122 182.0798,-122 182.0798,-86 287.9202,-86 287.9202,-122"/>
<text text-anchor="middle" x="235" y="-99.8" font-family="Times,serif" font-size="14.00" fill="#000000">UkAlertModule</text>
</g>
<!-- UkAlertModule&#45;&gt;NgxUikitModule -->
<g id="edge2" class="edge">
<title>UkAlertModule&#45;&gt;NgxUikitModule</title>
<path fill="none" stroke="#000000" d="M196.7539,-122.2228C196.7539,-122.2228 196.7539,-143.7269 196.7539,-143.7269"/>
<polygon fill="#000000" stroke="#000000" points="193.2539,-143.7269 196.7539,-153.7269 200.2539,-143.727 193.2539,-143.7269"/>
</g>
<!-- UkAlertComponent  -->
<g id="node11" class="node">
<title>UkAlertComponent </title>
<polygon fill="#fb8072" stroke="#000000" points="594.2023,-190 463.7977,-190 463.7977,-154 594.2023,-154 594.2023,-190"/>
<text text-anchor="middle" x="529" y="-167.8" font-family="Times,serif" font-size="14.00" fill="#000000">UkAlertComponent </text>
</g>
<!-- UkAlertModule&#45;&gt;UkAlertComponent  -->
<g id="edge9" class="edge">
<title>UkAlertModule&#45;&gt;UkAlertComponent </title>
<path fill="none" stroke="#000000" stroke-dasharray="5,2" d="M287.9009,-113C372.5453,-113 529,-113 529,-113 529,-113 529,-143.9775 529,-143.9775"/>
<polygon fill="#000000" stroke="#000000" points="525.5001,-143.9774 529,-153.9775 532.5001,-143.9775 525.5001,-143.9774"/>
</g>
<!-- UkAlertDirective  -->
<g id="node12" class="node">
<title>UkAlertDirective </title>
<polygon fill="#fb8072" stroke="#000000" points="445.9533,-190 328.0467,-190 328.0467,-154 445.9533,-154 445.9533,-190"/>
<text text-anchor="middle" x="387" y="-167.8" font-family="Times,serif" font-size="14.00" fill="#000000">UkAlertDirective </text>
</g>
<!-- UkAlertModule&#45;&gt;UkAlertDirective  -->
<g id="edge10" class="edge">
<title>UkAlertModule&#45;&gt;UkAlertDirective </title>
<path fill="none" stroke="#000000" stroke-dasharray="5,2" d="M249.4636,-122.2228C249.4636,-142.3652 249.4636,-172 249.4636,-172 249.4636,-172 318.2732,-172 318.2732,-172"/>
<polygon fill="#000000" stroke="#000000" points="318.2733,-175.5001 328.2732,-172 318.2732,-168.5001 318.2733,-175.5001"/>
</g>
<!-- UkAccordionComponent -->
<g id="node6" class="node">
<title>UkAccordionComponent</title>
<polygon fill="#ffffb3" stroke="#000000" points="1077.5267,-122 920.4733,-122 920.4733,-86 1077.5267,-86 1077.5267,-122"/>
<text text-anchor="middle" x="999" y="-99.8" font-family="Times,serif" font-size="14.00" fill="#000000">UkAccordionComponent</text>
</g>
<!-- UkAccordionModule -->
<g id="node7" class="node">
<title>UkAccordionModule</title>
<polygon fill="#8dd3c7" stroke="#000000" points="1066.7436,-190 1063.7436,-194 1042.7436,-194 1039.7436,-190 931.2564,-190 931.2564,-154 1066.7436,-154 1066.7436,-190"/>
<text text-anchor="middle" x="999" y="-167.8" font-family="Times,serif" font-size="14.00" fill="#000000">UkAccordionModule</text>
</g>
<!-- UkAccordionComponent&#45;&gt;UkAccordionModule -->
<g id="edge5" class="edge">
<title>UkAccordionComponent&#45;&gt;UkAccordionModule</title>
<path fill="none" stroke="#000000" d="M999,-122.2228C999,-122.2228 999,-143.7269 999,-143.7269"/>
<polygon fill="#000000" stroke="#000000" points="995.5001,-143.7269 999,-153.7269 1002.5001,-143.727 995.5001,-143.7269"/>
</g>
<!-- UkAccordionComponent  -->
<g id="node8" class="node">
<title>UkAccordionComponent </title>
<polygon fill="#fb8072" stroke="#000000" points="1079.526,-258 918.474,-258 918.474,-222 1079.526,-222 1079.526,-258"/>
<text text-anchor="middle" x="999" y="-235.8" font-family="Times,serif" font-size="14.00" fill="#000000">UkAccordionComponent </text>
</g>
<!-- UkAccordionModule&#45;&gt;UkAccordionComponent  -->
<g id="edge6" class="edge">
<title>UkAccordionModule&#45;&gt;UkAccordionComponent </title>
<path fill="none" stroke="#000000" stroke-dasharray="5,2" d="M999,-190.2228C999,-190.2228 999,-211.7269 999,-211.7269"/>
<polygon fill="#000000" stroke="#000000" points="995.5001,-211.7269 999,-221.7269 1002.5001,-211.727 995.5001,-211.7269"/>
</g>
<!-- UkAlertComponent -->
<g id="node9" class="node">
<title>UkAlertComponent</title>
<polygon fill="#ffffb3" stroke="#000000" points="877.7022,-190 750.2978,-190 750.2978,-154 877.7022,-154 877.7022,-190"/>
<text text-anchor="middle" x="814" y="-167.8" font-family="Times,serif" font-size="14.00" fill="#000000">UkAlertComponent</text>
</g>
<!-- UkAlertComponent&#45;&gt;UkAlertModule -->
<g id="edge7" class="edge">
<title>UkAlertComponent&#45;&gt;UkAlertModule</title>
<path fill="none" stroke="#000000" d="M814,-153.7521C814,-130.9821 814,-95 814,-95 814,-95 297.9173,-95 297.9173,-95"/>
<polygon fill="#000000" stroke="#000000" points="297.9173,-91.5001 287.9173,-95 297.9173,-98.5001 297.9173,-91.5001"/>
</g>
<!-- UkAlertDirective -->
<g id="node10" class="node">
<title>UkAlertDirective</title>
<polygon fill="#ffffb3" stroke="#000000" points="731.9524,-190 618.0476,-190 618.0476,-154 731.9524,-154 731.9524,-190"/>
<text text-anchor="middle" x="675" y="-167.8" font-family="Times,serif" font-size="14.00" fill="#000000">UkAlertDirective</text>
</g>
<!-- UkAlertDirective&#45;&gt;UkAlertModule -->
<g id="edge8" class="edge">
<title>UkAlertDirective&#45;&gt;UkAlertModule</title>
<path fill="none" stroke="#000000" d="M675,-153.7772C675,-133.6348 675,-104 675,-104 675,-104 298.0743,-104 298.0743,-104"/>
<polygon fill="#000000" stroke="#000000" points="298.0743,-100.5001 288.0743,-104 298.0742,-107.5001 298.0743,-100.5001"/>
</g>
<!-- UkAnimationDirective -->
<g id="node13" class="node">
<title>UkAnimationDirective</title>
<polygon fill="#ffffb3" stroke="#000000" points="1470.573,-122 1325.427,-122 1325.427,-86 1470.573,-86 1470.573,-122"/>
<text text-anchor="middle" x="1398" y="-99.8" font-family="Times,serif" font-size="14.00" fill="#000000">UkAnimationDirective</text>
</g>
<!-- UkAnimationModule -->
<g id="node15" class="node">
<title>UkAnimationModule</title>
<polygon fill="#8dd3c7" stroke="#000000" points="1284.0408,-190 1281.0408,-194 1260.0408,-194 1257.0408,-190 1147.9592,-190 1147.9592,-154 1284.0408,-154 1284.0408,-190"/>
<text text-anchor="middle" x="1216" y="-167.8" font-family="Times,serif" font-size="14.00" fill="#000000">UkAnimationModule</text>
</g>
<!-- UkAnimationDirective&#45;&gt;UkAnimationModule -->
<g id="edge11" class="edge">
<title>UkAnimationDirective&#45;&gt;UkAnimationModule</title>
<path fill="none" stroke="#000000" d="M1422.2622,-122.2667C1422.2622,-140.5552 1422.2622,-166 1422.2622,-166 1422.2622,-166 1294.1096,-166 1294.1096,-166"/>
<polygon fill="#000000" stroke="#000000" points="1294.1096,-162.5001 1284.1096,-166 1294.1096,-169.5001 1294.1096,-162.5001"/>
</g>
<!-- UkAnimationToggleDirective -->
<g id="node14" class="node">
<title>UkAnimationToggleDirective</title>
<polygon fill="#ffffb3" stroke="#000000" points="1307.231,-122 1122.769,-122 1122.769,-86 1307.231,-86 1307.231,-122"/>
<text text-anchor="middle" x="1215" y="-99.8" font-family="Times,serif" font-size="14.00" fill="#000000">UkAnimationToggleDirective</text>
</g>
<!-- UkAnimationToggleDirective&#45;&gt;UkAnimationModule -->
<g id="edge12" class="edge">
<title>UkAnimationToggleDirective&#45;&gt;UkAnimationModule</title>
<path fill="none" stroke="#000000" d="M1216,-122.2228C1216,-122.2228 1216,-143.7269 1216,-143.7269"/>
<polygon fill="#000000" stroke="#000000" points="1212.5001,-143.7269 1216,-153.7269 1219.5001,-143.727 1212.5001,-143.7269"/>
</g>
<!-- UkAnimationDirective  -->
<g id="node16" class="node">
<title>UkAnimationDirective </title>
<polygon fill="#fb8072" stroke="#000000" points="1474.0736,-258 1325.9264,-258 1325.9264,-222 1474.0736,-222 1474.0736,-258"/>
<text text-anchor="middle" x="1400" y="-235.8" font-family="Times,serif" font-size="14.00" fill="#000000">UkAnimationDirective </text>
</g>
<!-- UkAnimationModule&#45;&gt;UkAnimationDirective  -->
<g id="edge13" class="edge">
<title>UkAnimationModule&#45;&gt;UkAnimationDirective </title>
<path fill="none" stroke="#000000" stroke-dasharray="5,2" d="M1284.3769,-178C1327.0749,-178 1373.9878,-178 1373.9878,-178 1373.9878,-178 1373.9878,-211.7333 1373.9878,-211.7333"/>
<polygon fill="#000000" stroke="#000000" points="1370.4879,-211.7333 1373.9878,-221.7333 1377.4879,-211.7333 1370.4879,-211.7333"/>
</g>
<!-- UkAnimationToggleDirective  -->
<g id="node17" class="node">
<title>UkAnimationToggleDirective </title>
<polygon fill="#fb8072" stroke="#000000" points="1308.2309,-258 1119.7691,-258 1119.7691,-222 1308.2309,-222 1308.2309,-258"/>
<text text-anchor="middle" x="1214" y="-235.8" font-family="Times,serif" font-size="14.00" fill="#000000">UkAnimationToggleDirective </text>
</g>
<!-- UkAnimationModule&#45;&gt;UkAnimationToggleDirective  -->
<g id="edge14" class="edge">
<title>UkAnimationModule&#45;&gt;UkAnimationToggleDirective </title>
<path fill="none" stroke="#000000" stroke-dasharray="5,2" d="M1216,-190.2228C1216,-190.2228 1216,-211.7269 1216,-211.7269"/>
<polygon fill="#000000" stroke="#000000" points="1212.5001,-211.7269 1216,-221.7269 1219.5001,-211.727 1212.5001,-211.7269"/>
</g>
</g>
</svg>
